<?xml version="1.0" encoding="utf-8"?>
<!-- Generator: Adobe Illustrator 18.1.1, SVG Export Plug-In . SVG Version: 6.00 Build 0)  -->
<svg version="1.1" id="Layer_1" xmlns="http://www.w3.org/2000/svg" xmlns:xlink="http://www.w3.org/1999/xlink" x="0px" y="0px"
	 viewBox="0 0 800 800" enable-background="new 0 0 800 800" xml:space="preserve">
<g enable-background="new    ">
	<path fill="#00B0EB" d="M242,157.4h105.3v331.3c0,43.3-3.8,76.6-11.4,99.9c-10.2,30.5-28.8,54.9-55.7,73.4
		c-26.9,18.4-62.3,27.7-106.4,27.7c-51.6,0-91.4-14.5-119.2-43.4C26.8,617.3,12.7,574.9,12.5,519l99.6-11.4
		c1.2,30,5.6,51.2,13.2,63.5c11.4,18.8,28.8,28.2,52.1,28.2c23.6,0,40.2-6.7,50-20.2c9.8-13.4,14.6-41.3,14.6-83.7V157.4z"/>
</g>
<g enable-background="new    ">
	<path fill="#D33592" d="M347.3,157.4h209.2c41.4,0,72.3,1.7,92.6,5.2c20.3,3.5,38.5,10.7,54.6,21.6c16.1,10.9,29.4,25.5,40.2,43.7
		c10.7,18.2,16.1,38.6,16.1,61.2c0,24.5-6.6,47-19.8,67.5c-13.2,20.5-31.1,35.8-53.7,46c31.9,9.3,56.4,25.1,73.5,47.5
		c17.1,22.4,25.7,48.7,25.7,78.9c0,23.8-5.5,46.9-16.6,69.4c-11.1,22.5-26.2,40.5-45.3,53.9c-19.2,13.4-42.8,21.7-70.9,24.8
		c-17.6,1.9-60.1,3.1-127.4,3.6H347.3V157.4z M453,244.5v121h69.2c41.2,0,66.8-0.6,76.7-1.8c18.1-2.1,32.3-8.4,42.7-18.7
		s15.5-24,15.5-40.9c0-16.2-4.5-29.3-13.4-39.4c-8.9-10.1-22.2-16.2-39.8-18.4c-10.5-1.2-40.6-1.8-90.3-1.8H453z M453,452.6v139.9
		h97.8c38.1,0,62.2-1.1,72.5-3.2c15.7-2.9,28.5-9.8,38.4-20.9c9.9-11.1,14.8-25.9,14.8-44.4c0-15.7-3.8-29-11.4-40
		c-7.6-10.9-18.6-18.9-33-23.9c-14.4-5-45.6-7.5-93.7-7.5H453z"/>
</g>
</svg>
